<?xml version="1.0" encoding="UTF-8"?>
<svg id="Capa_2" data-name="Capa 2" xmlns="http://www.w3.org/2000/svg" viewBox="0 0 407.95 468.21">
  <defs>
    <style>
      .cls-1 {
        fill: #222;
      }

      .cls-2 {
        fill: #028e96;
      }

      .cls-3 {
        fill: #f38222;
      }

      .cls-4 {
        fill: #038d95;
      }
    </style>
  </defs>
  <g id="Capa_1-2" data-name="Capa 1">
    <path class="cls-2" d="M199.1,0c.08,14.6,.22,29.2,.23,43.81,.02,38.96-.02,77.91-.04,116.87-1.82,.06-3.65,.17-5.47,.17-49.96,.01-99.92,.01-149.88,0-5.86,0-5.88-.01-5.88-6.06,0-49.33-.01-98.66,.01-147.99,0-2.26-.32-4.58,.52-6.78,53.5,0,107.01-.01,160.51-.02ZM112.76,84.47h.02c0,10.94,.15,21.87-.08,32.8-.09,4.14,2.47,3.19,4.77,3.35,2.57,.17,4.14-.06,4.11-3.51-.18-21.42-.19-42.83-.03-64.25,.03-3.39-1.42-3.69-4.05-3.57-2.56,.12-4.98-.54-4.85,3.74,.32,10.47,.11,20.96,.11,31.44Z"/>
    <path class="cls-3" d="M199.25,247.98c0,25.42-.09,50.84,.1,76.26,.03,3.91-1.14,4.73-4.83,4.72-50.86-.12-101.72-.12-152.57,0-3.69,0-4.64-1.11-4.63-4.63,.07-50.84,.05-101.68-.05-152.52,0-3.82,1.35-4.87,5.07-4.86,50.71,.1,101.41,.1,152.12-.02,3.71,0,4.91,.88,4.88,4.79-.18,25.42-.09,50.84-.09,76.26Zm-86.54-.7h.11c0,8.83,.3,17.66-.13,26.47-.2,4.23,1.01,5.09,5.01,5.06,4.18-.03,3.85-2.45,3.84-5.06-.01-17.65-.02-35.3-.1-52.96-.02-3.3,.37-5.56,4.7-5.24,5.15,.38,10.35-.04,15.52,.11,3.14,.1,3.35-1.68,3.33-4.05-.02-2.27,.08-4.31-3.13-4.3-16.44,.04-32.88,.04-49.32,0-3.61,0-3.04,2.63-3.23,4.78-.22,2.39,.72,3.6,3.37,3.53,5.17-.13,10.36,.21,15.52-.07,3.79-.21,4.64,1.34,4.56,4.79-.19,8.97-.06,17.95-.06,26.93Z"/>
    <path class="cls-4" d="M367.48,292.6c0,25.28,0,50.56,0,75.84,0,5.58-.24,5.74-5.67,4.94-1.35-.2-2.73-.25-4.09-.25-48.29-.03-96.58-.06-144.88-.07-8,0-8,.03-8-8.1,0-48.73,0-97.46,0-146.19,0-6.9,0-7,7.12-7.01,47.84-.04,95.67-.03,143.51-.04,1.98,0,3.96,.04,5.94-.05,6.07-.29,6.07-.31,6.07,6.01,0,24.97,0,49.95,0,74.92Zm-50.9-17.07c0-7.45-.19-14.91,.08-22.36,.13-3.66-1.69-3.73-4.44-3.77-2.87-.04-4.41,.31-4.35,3.84,.2,12.47,.08,24.95,.05,37.42,0,3.82-.42,7.59-2.18,11.07-4.23,8.4-14.09,12.6-24.55,10.45-9.57-1.96-15.87-8.98-16.1-18.82-.3-13.23-.27-26.47-.08-39.7,.05-3.49-1-4.38-4.33-4.29-3.02,.08-4.71,.3-4.65,4.09,.22,13.53-.03,27.08,.16,40.61,.1,6.9,2.6,13.08,7.31,18.2,6.51,7.06,14.96,8.34,24.08,8.51,16.14,.31,29.17-10.6,29-28.83-.05-5.48,0-10.95-.01-16.43Zm-21.48-47.13c-3.61-.09-5.35,1.85-5.4,5.24-.05,3.18,1.74,5.36,4.91,5.38,3.23,.02,5.42-1.75,5.33-5.39-.07-3.18-1.43-5.15-4.84-5.23Zm-16.8,.03c-3.68-.26-5.42,1.72-5.54,5.07-.12,3.14,1.5,5.23,4.79,5.37,3.43,.14,5.46-1.67,5.55-5.14,.08-3.17-1.54-5.06-4.79-5.31Z"/>
    <path class="cls-3" d="M286.15,43.82c25.43,0,50.87,.07,76.3-.08,3.69-.02,4.83,.78,4.82,4.7-.13,50.85-.1,101.69,.05,152.54,.01,3.79-1.38,4.65-4.8,4.65-49.5-.04-98.99,.03-148.49,0-8.95,0-9.03-.18-9.03-9.38,0-49.33,.09-98.65,0-147.98,0-3.88,1.54-4.44,4.84-4.43,25.43,.1,50.87,.05,76.3,.05,0-.02,0-.05,0-.07Zm1.03,122.44c4.78,.93,10.08-.3,14.59-2.45,18.45-8.78,25.06-23.02,21.38-42.07-1.17-6.03-4.41-11.44-9.12-15.91-12.08-11.47-26.33-13.81-41.39-8.71-18.48,6.27-27.73,24.49-22.53,43.49,3.99,14.6,19.26,26.82,37.07,25.64Z"/>
    <path class="cls-1" d="M108.8,442.85c-3.73,5.98-5.89,11.15-8.17,16.26-1.06,2.38-1.77,4.82-5.08,5.08-3.56,.29-3.6-2.52-4.59-4.61-2.37-5.02-4.79-10.02-7.19-15.03-.47,.08-.94,.16-1.41,.24,0,6.22,.02,12.44-.02,18.66,0,1.33,.48,2.89-.76,3.86-.99,.78-2.32,.6-3.52,.29-1.38-.36-1.26-1.57-1.26-2.61-.02-9.89-.02-19.78-.01-29.68,0-1.38-.1-3.02,1.85-3.03,2.29-.01,4.99-1.1,6.5,1.83,2.98,5.79,5.99,11.57,8.93,17.38,.4,.79,.42,1.8,2.14,2.24,2.95-5.92,5.96-11.99,9.01-18.03,.8-1.59,1.34-3.4,3.69-3.55,3.39-.21,5.74-.06,5.54,4.61-.38,9.12-.13,18.26-.11,27.39,0,1.95,.01,3.63-2.74,3.65-2.7,.01-2.85-1.55-2.83-3.56,.04-6.67,.02-13.34,.02-21.4Z"/>
    <path class="cls-1" d="M340.21,432.18c11.41-.6,19.02,8.03,19.02,17.09,0,11.4-8.86,19.2-20.01,18.65-10.65-.52-18.34-7.81-18.4-18.37-.05-9.17,9.07-18.45,19.39-17.37Zm-.37,30.17c6.3,.14,12.92-6.39,12.93-12.76,0-5.41-6.54-11.74-12.34-11.94-6.24-.21-12.77,5.78-13.07,11.99-.29,5.94,6.23,12.58,12.48,12.71Z"/>
    <path class="cls-1" d="M27.47,449.76c0-4.72,.1-9.44-.03-14.15-.07-2.55,.87-3.53,3.45-3.46,4.41,.13,8.83-.02,13.24,.02,5.57,.05,10.5,3.07,12.1,7.33,1.95,5.21,.35,11.43-4.16,14.95-1.76,1.37-1.95,2.35-.57,4.05,1.12,1.39,1.93,3.03,2.83,4.59,.81,1.39,3.39,3.05,1.21,4.32-1.67,.97-4.82,1.52-6.5-1.21-1.28-2.07-2.41-4.22-3.65-6.31-1.12-1.88-2.41-3.15-5.01-3.14-6.39,.02-6.37-.15-6.48,6.39-.03,2.16,.75,4.65-3.06,4.73-4.04,.09-3.36-2.52-3.37-4.88-.02-4.41,0-8.83,0-13.24Zm6.43-5.48q0,7.12,6.11,7.12c7.35,0,10.32-2.07,10.33-7.18,0-4.62-3.04-6.57-10.3-6.57q-6.14,0-6.15,6.63Z"/>
    <path class="cls-1" d="M256.91,448.99c5.92-4.79,9.16-10.25,13.71-14.49,.99-.92,1.77-2.25,3.3-2.24,1.77,0,4.24-.95,5.14,.6,1.05,1.8-1.03,3.17-2.47,4.28-3.05,2.35-4.99,5.68-7.55,8.46-1.64,1.79-1.16,3.1,.1,4.77,4.08,5.42,8.06,10.93,12.12,16.46-6.03,2.18-7.65,1.59-10.76-3.44-1.19-1.92-2.62-3.71-4.05-5.47-1.27-1.57-2.13-4.29-4.78-3.3-2.44,.91-4.33,2.86-4.69,5.71-.17,1.35-.16,2.75-.05,4.1,.22,2.59-.88,3.47-3.44,3.43-2.5-.03-3.08-1.16-3.06-3.37,.07-9.74,.08-19.49,0-29.23-.02-2.46,1.07-3.1,3.32-3.12,2.38-.02,3.25,.9,3.18,3.25-.11,4.19-.03,8.39-.03,13.61Z"/>
    <path class="cls-1" d="M204.76,449.99c0-4.87,.07-9.75-.02-14.62-.05-2.36,.88-3.25,3.23-3.21,6.4,.09,12.79,.05,19.19,.02,1.86,0,3.26,.23,3.32,2.64,.07,2.7-1.53,2.87-3.55,2.85-4.11-.04-8.23,.15-12.33-.05-4.09-.2-3.21,2.59-3.34,4.91-.14,2.49-.04,4.55,3.46,4.34,3.64-.22,7.31,.01,10.96-.07,2.15-.05,3.01,.82,2.95,2.98-.05,2.09-1.17,2.53-2.94,2.51-3.65-.04-7.32,.18-10.96-.05-3.98-.25-3.57,2.37-3.43,4.79,.13,2.31-1.21,5.54,3.3,5.36,4.26-.17,8.53-.04,12.79-.03,1.99,0,4.05-.3,3.99,2.85-.06,2.86-1.92,2.61-3.76,2.61-6.4,0-12.8-.1-19.19,.05-2.79,.07-3.79-.93-3.69-3.7,.16-4.71,.04-9.44,.05-14.16Z"/>
    <path class="cls-1" d="M407.79,446.73c-.51,3.78,1.08,8.51-.75,12.8-3.36,7.89-9.56,9.16-18.72,7.94-8.02-1.07-11.63-6.02-11.7-14.21-.05-5.92,.05-11.85-.03-17.77-.03-2.23,.61-3.33,3.08-3.35,2.53-.02,3.54,.83,3.48,3.42-.13,5.31-.06,10.63-.03,15.95,.04,8.92,7.02,13.1,14.71,8.84,3.39-1.88,3.3-5.31,3.46-8.36,.29-5.45,.13-10.93,.07-16.4-.02-2.11,.37-3.46,2.96-3.46,2.48,0,3.63,.74,3.52,3.39-.15,3.49-.04,6.99-.04,11.2Z"/>
    <path class="cls-1" d="M170.03,452.87c0-3.81-.16-7.62,.05-11.42,.17-3.08-1.08-4.11-3.99-3.83-1.66,.16-3.35,.02-5.02-.02-1.62-.04-1.96-1.12-1.97-2.48-.01-1.47,.14-2.87,2.05-2.88,8.07-.03,16.14-.02,24.22,0,1.89,0,2.14,1.32,2.13,2.82,0,1.35-.3,2.43-1.92,2.55-.3,.02-.61,.02-.91,.05q-8.12,.81-8.12,9.2c0,5.79-.07,11.57,.03,17.36,.04,2.37-.48,3.68-3.25,3.68-2.68,0-3.41-1.13-3.32-3.59,.13-3.8,.04-7.61,.04-11.42Z"/>
    <path class="cls-1" d="M6.5,450.46c0,4.55-.06,9.11,.02,13.66,.04,2.26-.29,3.76-3.15,3.74-2.63-.01-3.39-1.05-3.37-3.53,.09-9.56,.08-19.13,0-28.69-.02-2.49,.76-3.52,3.39-3.52,2.86,0,3.17,1.52,3.14,3.77-.08,4.86-.02,9.71-.02,14.57Z"/>
    <path class="cls-1" d="M135.37,449.76c0-4.7,.08-9.41-.04-14.11-.06-2.49,.75-3.57,3.38-3.52,2.4,.05,3.15,1.03,3.13,3.31-.08,9.71-.1,19.42-.03,29.13,.02,2.3-.73,3.23-3.12,3.29-2.67,.06-3.4-1.08-3.34-3.54,.12-4.85,.04-9.71,.03-14.56Z"/>
    <path class="cls-1" d="M384.85,424.05c-.18-1.93,.74-3.06,2.9-2.8,1.93,.24,3.63,.95,3.49,3.35-.14,2.4-1.94,2.84-3.86,2.97-2.48,.16-2.57-1.57-2.54-3.52Z"/>
    <path class="cls-1" d="M396.56,421.22c2.83,.02,3.69,1.51,3.66,3.23-.04,2-1.22,3.21-3.49,3.21-2.24,0-2.8-1.15-2.75-3.12,.05-2.21,1.04-3.34,2.59-3.32Z"/>
    <path class="cls-3" d="M314.66,130.69c1.43,13.99-12.59,27.64-28.24,27.47-15.47-.17-28.58-12.71-28.63-27.68-.05-12.28,10.39-27.87,30.05-27.4,13.67,.32,28.14,13.15,26.82,27.61Z"/>
  </g>
</svg>